<svg version="1.1" id="Layer_1" xmlns="http://www.w3.org/2000/svg" xmlns:xlink="http://www.w3.org/1999/xlink" x="0px" y="0px"
	 width="100%" viewBox="0 0 96 75" enable-background="new 0 0 96 75" xml:space="preserve">
<path fill="#FEFEFD" opacity="1.000000" stroke="none" 
	d="
M97.000000,59.000000 
	C97.000000,64.596634 97.000000,70.193260 97.000000,76.000000 
	C90.980728,76.000000 84.959740,76.000000 78.504478,75.642960 
	C79.704796,72.394920 82.073715,69.656242 80.367943,66.033638 
	C84.590424,68.568275 88.263245,68.342583 91.368874,64.938599 
	C92.184853,64.044212 92.721825,62.182156 92.360649,61.110302 
	C91.924767,59.816730 90.396141,58.891369 89.340485,57.806629 
	C89.017883,58.107395 88.695282,58.408161 88.372681,58.708927 
	C89.200417,59.924839 90.028160,61.140751 91.524734,63.339153 
	C88.715309,64.215950 86.184608,65.893478 84.475075,65.280571 
	C82.881195,64.709129 80.903282,61.309196 81.355904,59.861286 
	C82.002853,57.791714 84.709427,56.365974 86.694542,54.518116 
	C85.504494,54.383301 83.672119,54.175728 81.922302,53.594048 
	C82.390060,49.292870 82.775269,45.365795 83.166168,41.004028 
	C84.772011,31.622486 83.171364,23.331991 78.013077,15.434851 
	C74.678497,12.619116 71.414597,10.125059 67.943581,7.368121 
	C66.484222,6.780092 65.231972,6.454945 63.664902,5.917866 
	C61.653618,5.404064 59.957150,5.102193 58.082336,4.452739 
	C51.593285,4.807992 45.282574,5.510829 38.564507,6.178796 
	C31.643005,6.337064 26.411219,8.844370 22.663704,14.766472 
	C17.404629,21.486181 15.091381,28.907188 14.518846,37.270485 
	C14.775351,41.343887 15.362558,45.180714 15.989155,49.332783 
	C16.302816,49.958725 16.577087,50.269417 16.818905,50.676590 
	C16.786451,50.773064 16.935307,50.911942 16.984306,51.267540 
	C20.039740,55.081051 23.046171,58.538960 26.024403,62.001411 
	C25.996201,62.005951 26.000389,61.948975 26.062599,62.200546 
	C26.421955,62.600571 26.719099,62.749023 27.278694,63.107758 
	C33.932522,69.515259 41.073326,74.138504 50.403114,74.167824 
	C50.418293,74.139412 50.443878,74.078392 50.712097,74.337128 
	C51.940098,74.588379 52.899879,74.580894 54.263245,74.607559 
	C59.215340,74.395164 63.570431,73.761307 66.148346,69.010345 
	C66.586060,68.944504 66.759521,68.908035 67.074738,69.196144 
	C68.144325,71.680473 69.072159,73.840240 70.000000,76.000000 
	C47.078270,76.000000 24.156538,76.000000 1.000000,76.000000 
	C1.000000,56.313061 1.000000,36.625187 1.372433,16.425928 
	C2.835867,13.969880 3.926870,12.025218 5.056952,10.010897 
	C9.531459,11.772317 9.531459,11.772317 15.499464,6.089623 
	C14.987077,4.350432 14.493538,2.675216 14.000000,1.000000 
	C41.571774,1.000000 69.143547,1.000000 97.000000,1.000000 
	C97.000000,15.686336 97.000000,30.374510 96.650970,45.533829 
	C95.200935,46.670605 94.099922,47.336239 92.999451,48.000935 
	C93.000000,48.000000 93.001869,47.998993 92.684280,48.155777 
	C88.425148,52.801964 90.524315,57.644012 97.000000,59.000000 
M86.596024,60.519253 
	C86.596024,60.519253 86.479904,60.589817 86.596024,60.519253 
z"/>
<path fill="#F1F1F1" opacity="1.000000" stroke="none" 
	d="
M13.625000,1.000000 
	C14.493538,2.675216 14.987077,4.350432 15.499464,6.089623 
	C9.531459,11.772317 9.531459,11.772317 5.056952,10.010897 
	C3.926870,12.025218 2.835867,13.969880 1.372433,15.957272 
	C1.000000,11.128185 1.000000,6.256371 1.000000,1.000000 
	C2.315785,1.000000 3.657930,1.000000 5.465029,1.361427 
	C6.368162,3.723274 6.635234,5.790052 7.366892,7.676656 
	C7.545971,8.138416 10.103685,8.202510 10.120890,8.125633 
	C10.573879,6.101447 10.847603,4.036118 11.119700,1.973569 
	C11.161098,1.659771 11.043862,1.325046 11.000000,1.000000 
	C11.750000,1.000000 12.500000,1.000000 13.625000,1.000000 
z"/>
<path fill="#F2F2F2" opacity="1.000000" stroke="none" 
	d="
M70.444168,76.000000 
	C69.072159,73.840240 68.144325,71.680473 67.184021,68.923477 
	C67.775108,67.917831 68.398651,67.509422 69.020386,67.471008 
	C69.295731,68.775200 69.299263,69.986145 69.906487,70.586464 
	C71.206032,71.871246 72.693146,73.284821 74.354340,73.750420 
	C75.180420,73.981949 77.372505,72.350136 77.509720,71.361763 
	C77.747803,69.646690 77.097504,67.677208 76.369675,66.011024 
	C75.968834,65.093422 74.650909,64.576424 73.883286,63.605064 
	C74.650108,62.831287 75.280098,62.331261 76.049637,62.132774 
	C77.460869,63.624241 78.732544,64.814171 80.002197,66.002182 
	C80.000175,66.000275 79.997314,65.995468 79.997314,65.995468 
	C82.073715,69.656242 79.704796,72.394920 78.035103,75.642960 
	C75.629440,76.000000 73.258888,76.000000 70.444168,76.000000 
z"/>
<path fill="#FEFEFE" opacity="1.000000" stroke="none" 
	d="
M10.583334,1.000000 
	C11.043862,1.325046 11.161098,1.659771 11.119700,1.973569 
	C10.847603,4.036118 10.573879,6.101447 10.120890,8.125633 
	C10.103685,8.202510 7.545971,8.138416 7.366892,7.676656 
	C6.635234,5.790052 6.368162,3.723274 5.964992,1.361427 
	C7.388889,1.000000 8.777778,1.000000 10.583334,1.000000 
z"/>
<path fill="#FEFEFE" opacity="1.000000" stroke="none" 
	d="
M97.000000,48.000000 
	C97.000000,50.700962 97.000000,53.401924 96.628204,56.509514 
	C91.607445,55.244579 93.349335,51.240501 93.001869,47.998993 
	C93.001869,47.998993 93.000000,48.000000 93.399582,48.004196 
	C94.866112,48.005592 95.933060,48.002796 97.000000,48.000000 
z"/>
<path fill="#F2F2F2" opacity="1.000000" stroke="none" 
	d="
M92.684280,48.155777 
	C93.349335,51.240501 91.607445,55.244579 96.628204,56.958073 
	C97.000000,57.444447 97.000000,57.888889 97.000000,58.666668 
	C90.524315,57.644012 88.425148,52.801964 92.684280,48.155777 
z"/>
<path fill="#F2F2F2" opacity="1.000000" stroke="none" 
	d="
M97.000000,47.666668 
	C95.933060,48.002796 94.866112,48.005592 93.399040,48.005131 
	C94.099922,47.336239 95.200935,46.670605 96.650970,46.002487 
	C97.000000,46.444447 97.000000,46.888889 97.000000,47.666668 
z"/>
<path fill="#FDF722" opacity="1.000000" stroke="none" 
	d="
M78.083763,15.756528 
	C83.171364,23.331991 84.772011,31.622486 83.019089,41.298931 
	C78.971771,47.375114 75.077232,52.721703 70.774208,57.972038 
	C69.910355,56.410587 69.132568,54.961277 69.059425,53.477238 
	C68.830643,48.834980 68.867821,44.179607 68.941933,39.256256 
	C70.164032,37.470394 71.246132,35.957596 72.317596,34.416084 
	C72.306969,34.387367 72.281715,34.331886 72.571487,34.238499 
	C73.077888,33.804047 73.294525,33.462986 73.725143,32.910881 
	C74.398361,31.839462 74.857597,30.979084 75.547211,29.912697 
	C76.130264,28.555712 76.482925,27.404734 76.997589,25.917835 
	C77.420837,24.391235 77.682083,23.200556 77.969360,21.565956 
	C78.024864,19.333534 78.054314,17.545031 78.083763,15.756528 
z"/>
<path fill="#FC57A0" opacity="1.000000" stroke="none" 
	d="
M38.971863,6.213667 
	C45.282574,5.510829 51.593285,4.807992 57.714436,4.512848 
	C56.006195,5.590281 54.487511,6.260021 52.652573,7.021385 
	C50.917278,8.414846 49.498241,9.716684 47.808266,11.170545 
	C46.974220,12.187214 46.411110,13.051860 45.585258,14.095625 
	C44.495724,15.514284 43.668938,16.753824 42.425903,17.994877 
	C37.565838,17.292988 33.122028,16.589582 28.789558,15.556099 
	C32.257889,12.221902 35.614876,9.217784 38.971863,6.213667 
z"/>
<path fill="#FA1E89" opacity="1.000000" stroke="none" 
	d="
M50.387939,74.196236 
	C41.073326,74.138504 33.932522,69.515259 27.204983,62.839348 
	C26.579342,62.223434 26.289865,62.086205 26.000389,61.948975 
	C26.000389,61.948975 25.996201,62.005951 26.111958,61.629868 
	C25.700697,59.832767 25.173681,58.411747 25.148792,56.993156 
	C29.999529,56.913158 34.348141,56.830727 38.839767,57.037018 
	C39.647484,58.885708 40.312183,60.445675 40.997513,62.356606 
	C42.676411,65.115608 44.334682,67.523643 46.145142,70.230789 
	C47.660866,71.752014 49.024403,72.974129 50.387939,74.196236 
z"/>
<path fill="#088CF6" opacity="1.000000" stroke="none" 
	d="
M75.910080,61.831230 
	C75.280098,62.331261 74.650108,62.831287 73.590378,63.725060 
	C71.781158,65.112869 70.401672,66.106941 69.022194,67.101006 
	C68.398651,67.509422 67.775108,67.917831 67.042267,68.598907 
	C66.759521,68.908035 66.586060,68.944504 65.768082,69.038010 
	C60.345818,69.622986 55.568066,70.150925 50.845306,70.262558 
	C52.808617,68.130165 54.744946,66.443970 56.617374,64.689583 
	C58.492424,62.932739 60.303658,61.107777 62.569798,59.285706 
	C65.275398,59.423656 67.554054,59.588573 70.173340,59.810802 
	C73.495293,58.889736 76.476616,57.911358 79.358551,57.198555 
	C79.133598,57.814247 79.008049,58.164356 78.604355,58.684891 
	C77.520828,59.847286 76.715454,60.839260 75.910080,61.831230 
z"/>
<path fill="#FFBA14" opacity="1.000000" stroke="none" 
	d="
M77.943329,22.009876 
	C77.682083,23.200556 77.420837,24.391235 76.629753,25.829685 
	C73.701874,25.492289 71.303825,24.907122 68.927383,23.933174 
	C66.032051,18.388449 63.115116,13.232503 60.065895,7.842733 
	C61.422863,7.248839 62.701290,6.689319 63.979717,6.129798 
	C65.231972,6.454945 66.484222,6.780092 67.905701,7.766622 
	C69.524803,14.291918 72.942039,18.726372 77.943329,22.009876 
z"/>
<path fill="#FDAC0F" opacity="1.000000" stroke="none" 
	d="
M63.664902,5.917866 
	C62.701290,6.689319 61.422863,7.248839 60.065895,7.842733 
	C63.115116,13.232503 66.032051,18.388449 68.498970,23.960609 
	C66.054214,24.463337 64.059471,24.549847 62.054714,24.207310 
	C61.426422,22.101465 61.021198,20.303293 60.148476,18.771458 
	C57.864262,14.762126 55.375851,10.869128 52.968830,6.929760 
	C54.487511,6.260021 56.006195,5.590281 57.892776,4.860433 
	C59.957150,5.102193 61.653618,5.404064 63.664902,5.917866 
z"/>
<path fill="#07D2FC" opacity="1.000000" stroke="none" 
	d="
M14.849548,37.033909 
	C15.091381,28.907188 17.404629,21.486181 22.688601,15.228361 
	C23.351553,17.702829 23.693182,19.916739 23.991056,22.474182 
	C23.737892,23.878565 23.528484,24.939413 23.312803,26.417828 
	C22.593021,29.890882 21.879511,32.946369 21.096262,36.333172 
	C20.966019,37.110310 20.905516,37.556129 20.453178,38.002045 
	C18.563784,38.387562 17.066225,38.772984 15.358961,38.955666 
	C15.049355,38.179924 14.949451,37.606918 14.849548,37.033909 
z"/>
<path fill="#118BFC" opacity="1.000000" stroke="none" 
	d="
M24.034809,22.130646 
	C23.693182,19.916739 23.351553,17.702829 22.985027,15.027032 
	C26.411219,8.844370 31.643005,6.337064 38.564507,6.178796 
	C35.614876,9.217784 32.257889,12.221902 28.534855,15.753833 
	C26.790810,18.231314 25.412809,20.180979 24.034809,22.130646 
z"/>
<path fill="#1A42CE" opacity="1.000000" stroke="none" 
	d="
M79.457947,56.932976 
	C76.476616,57.911358 73.495293,58.889736 70.315582,59.574448 
	C70.472366,58.876614 70.827530,58.472454 71.182686,58.068291 
	C75.077232,52.721703 78.971771,47.375114 83.013397,41.733627 
	C82.775269,45.365795 82.390060,49.292870 81.682121,53.745480 
	C80.725571,55.158337 80.091759,56.045658 79.457947,56.932976 
z"/>
<path fill="#F0F1F2" opacity="1.000000" stroke="none" 
	d="
M79.358551,57.198559 
	C80.091759,56.045658 80.725571,55.158337 81.599564,54.119583 
	C83.672119,54.175728 85.504494,54.383301 86.694542,54.518116 
	C84.709427,56.365974 82.002853,57.791714 81.355904,59.861286 
	C80.903282,61.309196 82.881195,64.709129 84.475075,65.280571 
	C86.184608,65.893478 88.715309,64.215950 91.524734,63.339153 
	C90.028160,61.140751 89.200417,59.924839 88.372681,58.708927 
	C88.695282,58.408161 89.017883,58.107395 89.340485,57.806629 
	C90.396141,58.891369 91.924767,59.816730 92.360649,61.110302 
	C92.721825,62.182156 92.184853,64.044212 91.368874,64.938599 
	C88.263245,68.342583 84.590424,68.568275 80.367943,66.033638 
	C79.997314,65.995468 80.000175,66.000275 79.994614,65.588257 
	C79.620209,62.955647 79.251358,60.735058 78.882500,58.514465 
	C79.008049,58.164356 79.133598,57.814247 79.358551,57.198559 
z"/>
<path fill="#FFC71F" opacity="1.000000" stroke="none" 
	d="
M77.969368,21.565956 
	C72.942039,18.726372 69.524803,14.291918 68.112808,8.029503 
	C71.414597,10.125059 74.678497,12.619116 78.013077,15.434851 
	C78.054314,17.545031 78.024864,19.333534 77.969368,21.565956 
z"/>
<path fill="#8D1047" opacity="1.000000" stroke="none" 
	d="
M50.790318,70.678871 
	C55.568066,70.150925 60.345818,69.622986 65.503830,69.067390 
	C63.570431,73.761307 59.215340,74.395164 53.964302,74.428085 
	C52.322479,74.169106 51.383179,74.123741 50.443878,74.078384 
	C50.443878,74.078392 50.418293,74.139412 50.403114,74.167824 
	C49.024403,72.974129 47.660866,71.752014 46.552025,70.242256 
	C48.134583,70.196030 49.462448,70.437454 50.790318,70.678871 
z"/>
<path fill="#ED9A1E" opacity="1.000000" stroke="none" 
	d="
M14.518846,37.270485 
	C14.949451,37.606918 15.049355,38.179924 15.430624,39.344872 
	C16.805479,44.632095 17.922432,49.314091 22.617992,52.181820 
	C22.451262,52.610703 22.215067,52.866577 21.634169,53.063648 
	C19.838079,52.307209 18.386692,51.609577 16.935307,50.911942 
	C16.935307,50.911942 16.786451,50.773064 16.779930,50.358463 
	C16.498861,49.635086 16.224316,49.326309 15.949768,49.017536 
	C15.362558,45.180714 14.775351,41.343887 14.518846,37.270485 
z"/>
<path fill="#FFCE29" opacity="1.000000" stroke="none" 
	d="
M16.984306,51.267540 
	C18.386692,51.609577 19.838079,52.307209 21.767475,53.331051 
	C23.045877,54.768417 23.846273,55.879574 24.646667,56.990730 
	C25.173681,58.411747 25.700697,59.832767 26.140160,61.625328 
	C23.046171,58.538960 20.039740,55.081051 16.984306,51.267540 
z"/>
<path fill="#FA1E89" opacity="1.000000" stroke="none" 
	d="
M50.712097,74.337128 
	C51.383179,74.123741 52.322479,74.169106 53.560722,74.393936 
	C52.899879,74.580894 51.940098,74.588379 50.712097,74.337128 
z"/>
<path fill="#FFCE29" opacity="1.000000" stroke="none" 
	d="
M15.989157,49.332783 
	C16.224316,49.326309 16.498861,49.635086 16.812384,50.261986 
	C16.577087,50.269417 16.302816,49.958725 15.989157,49.332783 
z"/>
<path fill="#F0F1F2" opacity="1.000000" stroke="none" 
	d="
M86.537964,60.554535 
	C86.479904,60.589817 86.596024,60.519253 86.537964,60.554535 
z"/>
<path fill="#FFCE29" opacity="1.000000" stroke="none" 
	d="
M26.062599,62.200546 
	C26.289865,62.086205 26.579342,62.223434 26.942532,62.629070 
	C26.719099,62.749023 26.421955,62.600571 26.062599,62.200546 
z"/>
<path fill="#FCFDFE" opacity="1.000000" stroke="none" 
	d="
M69.020386,67.471008 
	C70.401672,66.106941 71.781158,65.112869 73.453537,63.998810 
	C74.650909,64.576424 75.968834,65.093422 76.369675,66.011024 
	C77.097504,67.677208 77.747803,69.646690 77.509720,71.361763 
	C77.372505,72.350136 75.180420,73.981949 74.354340,73.750420 
	C72.693146,73.284821 71.206032,71.871246 69.906487,70.586464 
	C69.299263,69.986145 69.295731,68.775200 69.020386,67.471008 
z"/>
<path fill="#FEFEFD" opacity="1.000000" stroke="none" 
	d="
M78.604355,58.684891 
	C79.251358,60.735058 79.620209,62.955647 79.996643,65.590164 
	C78.732544,64.814171 77.460869,63.624241 76.049637,62.132774 
	C76.715454,60.839260 77.520828,59.847286 78.604355,58.684891 
z"/>
<path fill="#FCEE20" opacity="1.000000" stroke="none" 
	d="
M70.774208,57.972038 
	C70.827530,58.472454 70.472366,58.876614 69.974960,59.517136 
	C67.554054,59.588573 65.275398,59.423656 62.245502,59.172394 
	C58.936359,58.220711 56.378445,57.355366 53.828934,56.276634 
	C53.557606,56.058735 53.277878,56.054222 52.688858,56.042900 
	C51.870338,55.714611 51.361118,55.393139 51.142845,54.858700 
	C51.622330,53.471874 51.810867,52.298019 52.278946,50.928757 
	C54.071224,49.822189 55.583965,48.911026 57.417030,47.893719 
	C61.425545,45.034821 65.113739,42.282070 68.801933,39.529320 
	C68.867821,44.179607 68.830643,48.834980 69.059425,53.477238 
	C69.132568,54.961277 69.910355,56.410587 70.774208,57.972038 
z"/>
<path fill="#E51071" opacity="1.000000" stroke="none" 
	d="
M68.941933,39.256256 
	C65.113739,42.282070 61.425545,45.034821 57.346920,47.479900 
	C57.429539,43.794102 57.902588,40.415977 58.709602,36.924709 
	C63.471790,36.022644 67.900009,35.233723 72.328232,34.444798 
	C71.246132,35.957596 70.164032,37.470394 68.941933,39.256256 
z"/>
<path fill="#D50B51" opacity="1.000000" stroke="none" 
	d="
M62.064735,24.636356 
	C64.059471,24.549847 66.054214,24.463337 68.477371,24.349390 
	C71.303825,24.907122 73.701874,25.492289 76.467751,26.165606 
	C76.482925,27.404734 76.130264,28.555712 75.081238,29.878475 
	C69.093689,30.364820 63.802502,30.679382 58.399551,30.594963 
	C58.157642,28.818399 58.027500,27.440817 57.966564,25.907166 
	C58.035767,25.751099 58.170650,25.437426 58.508102,25.403456 
	C59.918617,25.125109 60.991676,24.880732 62.064735,24.636356 
z"/>
<path fill="#D50F68" opacity="1.000000" stroke="none" 
	d="
M58.511318,30.993942 
	C63.802502,30.679382 69.093689,30.364820 74.850845,30.084484 
	C74.857597,30.979084 74.398361,31.839462 73.407387,32.980831 
	C72.677666,33.618511 72.479691,33.975197 72.281715,34.331886 
	C72.281715,34.331886 72.306969,34.387367 72.317596,34.416084 
	C67.900009,35.233723 63.471790,36.022644 58.590210,36.790848 
	C58.136852,36.770126 58.043274,36.424854 58.157661,35.980679 
	C58.351803,34.022316 58.431561,32.508129 58.511318,30.993942 
z"/>
<path fill="#E51071" opacity="1.000000" stroke="none" 
	d="
M72.571487,34.238499 
	C72.479691,33.975197 72.677666,33.618511 73.193405,33.191872 
	C73.294525,33.462986 73.077888,33.804047 72.571487,34.238499 
z"/>
<path fill="#FE9007" opacity="1.000000" stroke="none" 
	d="
M42.842152,17.993364 
	C43.668938,16.753824 44.495724,15.514284 45.902573,14.247890 
	C49.040840,18.298462 51.599045,22.375887 53.950104,26.697880 
	C52.023533,27.781185 50.304111,28.619926 48.254066,29.580906 
	C44.630863,31.731899 41.338276,33.760658 38.024731,35.383430 
	C38.496861,32.033226 38.989948,29.089001 39.660820,25.858829 
	C40.839787,23.046375 41.840969,20.519871 42.842152,17.993364 
z"/>
<path fill="#FD499A" opacity="1.000000" stroke="none" 
	d="
M42.425903,17.994877 
	C41.840969,20.519871 40.839787,23.046375 39.163345,25.817272 
	C33.431751,26.041195 28.375414,26.020729 23.319077,26.000261 
	C23.528484,24.939413 23.737892,23.878565 23.991055,22.474182 
	C25.412809,20.180979 26.790810,18.231314 28.423512,16.083912 
	C33.122028,16.589582 37.565838,17.292988 42.425903,17.994877 
z"/>
<path fill="#FD9F0D" opacity="1.000000" stroke="none" 
	d="
M62.054714,24.207310 
	C60.991676,24.880732 59.918617,25.125109 58.456032,24.991150 
	C56.382248,18.872969 53.323368,14.143016 48.079205,11.018520 
	C49.498241,9.716684 50.917278,8.414846 52.652573,7.021384 
	C55.375851,10.869128 57.864262,14.762126 60.148476,18.771458 
	C61.021198,20.303293 61.426422,22.101465 62.054714,24.207310 
z"/>
<path fill="#FE9907" opacity="1.000000" stroke="none" 
	d="
M47.808266,11.170544 
	C53.323368,14.143016 56.382248,18.872969 58.118576,25.025120 
	C58.170650,25.437426 58.035767,25.751099 57.590454,25.890976 
	C56.149181,26.171671 55.153214,26.312490 54.157249,26.453312 
	C51.599045,22.375887 49.040840,18.298462 46.165318,14.068771 
	C46.411110,13.051860 46.974220,12.187214 47.808266,11.170544 
z"/>
<path fill="#0698F7" opacity="1.000000" stroke="none" 
	d="
M53.820534,56.490025 
	C56.378445,57.355366 58.936359,58.220711 61.818565,59.199364 
	C60.303658,61.107777 58.492424,62.932739 56.617374,64.689583 
	C54.744946,66.443970 52.808617,68.130165 50.845306,70.262558 
	C49.462448,70.437454 48.134583,70.196030 46.399834,69.943146 
	C44.334682,67.523643 42.676411,65.115608 41.305107,62.209404 
	C44.080223,59.416969 46.568378,57.122704 49.358543,54.859734 
	C50.057667,54.951244 50.454784,55.011456 50.851898,55.071667 
	C51.361118,55.393139 51.870338,55.714611 52.857231,56.222473 
	C53.334904,56.408863 53.820534,56.490025 53.820534,56.490025 
z"/>
<path fill="#FC258C" opacity="1.000000" stroke="none" 
	d="
M25.148792,56.993156 
	C23.846273,55.879574 23.045877,54.768417 22.112179,53.389858 
	C22.215067,52.866577 22.451262,52.610703 22.553967,51.781956 
	C22.284145,50.137993 22.147818,49.066902 22.458504,47.999081 
	C27.548214,48.335403 32.190910,48.668457 36.904858,49.395103 
	C37.549656,52.108566 38.123203,54.428432 38.696751,56.748299 
	C34.348141,56.830727 29.999529,56.913158 25.148792,56.993156 
z"/>
<path fill="#09A5F8" opacity="1.000000" stroke="none" 
	d="
M38.839767,57.037022 
	C38.123203,54.428432 37.549656,52.108566 37.011734,49.082157 
	C37.142681,48.176804 37.238003,47.977989 37.668114,47.854401 
	C40.981743,49.644203 43.960587,51.358772 47.084488,53.318092 
	C47.838547,53.984707 48.447540,54.406574 49.056534,54.828438 
	C46.568378,57.122704 44.080223,59.416969 41.284477,61.858437 
	C40.312183,60.445675 39.647484,58.885708 38.839767,57.037022 
z"/>
<path fill="#FC3E97" opacity="1.000000" stroke="none" 
	d="
M23.312803,26.417828 
	C28.375414,26.020729 33.431751,26.041195 38.985558,26.103220 
	C38.989948,29.089001 38.496861,32.033226 37.899677,35.693954 
	C37.559662,37.270557 37.323746,38.130650 36.665051,38.982475 
	C31.216850,37.983421 26.191425,36.992638 21.166000,36.001854 
	C21.879511,32.946369 22.593021,29.890882 23.312803,26.417828 
z"/>
<path fill="#FD2F92" opacity="1.000000" stroke="none" 
	d="
M21.096260,36.333172 
	C26.191425,36.992638 31.216850,37.983421 36.701679,39.426559 
	C37.218498,42.512337 37.275913,45.145756 37.333328,47.779175 
	C37.238003,47.977989 37.142681,48.176804 36.940483,48.688560 
	C32.190910,48.668457 27.548214,48.335403 22.079288,47.805893 
	C21.117044,44.406937 20.981030,41.204445 20.845013,38.001949 
	C20.905516,37.556129 20.966019,37.110310 21.096260,36.333172 
z"/>
<path fill="#02C3FC" opacity="1.000000" stroke="none" 
	d="
M20.453178,38.002045 
	C20.981030,41.204445 21.117044,44.406937 21.632275,47.802620 
	C22.147818,49.066902 22.284145,50.137993 22.484501,51.608948 
	C17.922432,49.314091 16.805479,44.632095 15.640327,39.547607 
	C17.066225,38.772984 18.563784,38.387562 20.453178,38.002045 
z"/>
<path fill="#FCFAFB" opacity="1.000000" stroke="none" 
	d="
M37.668114,47.854401 
	C37.275913,45.145756 37.218498,42.512337 37.124454,39.434830 
	C37.323746,38.130650 37.559662,37.270557 37.920635,36.099937 
	C41.338276,33.760658 44.630863,31.731899 48.560368,29.820969 
	C52.145950,32.100815 55.094612,34.262836 58.043274,36.424854 
	C58.043274,36.424854 58.136852,36.770126 58.256245,36.903988 
	C57.902588,40.415977 57.429539,43.794102 57.026596,47.586048 
	C55.583965,48.911026 54.071224,49.822189 51.941170,50.969978 
	C49.862373,51.828850 48.400902,52.451099 46.939430,53.073349 
	C43.960587,51.358772 40.981743,49.644203 37.668114,47.854401 
z"/>
<path fill="#F5E828" opacity="1.000000" stroke="none" 
	d="
M47.084492,53.318092 
	C48.400902,52.451099 49.862373,51.828850 51.661629,51.165382 
	C51.810867,52.298019 51.622330,53.471874 51.142845,54.858700 
	C50.454784,55.011456 50.057667,54.951244 49.358543,54.859734 
	C48.447540,54.406574 47.838547,53.984707 47.084492,53.318092 
z"/>
<path fill="#F5E828" opacity="1.000000" stroke="none" 
	d="
M53.828934,56.276634 
	C53.820534,56.490025 53.334904,56.408863 53.166527,56.229286 
	C53.277878,56.054222 53.557606,56.058735 53.828934,56.276634 
z"/>
<path fill="#0F69E7" opacity="1.000000" stroke="none" 
	d="
M58.157661,35.980679 
	C55.094612,34.262836 52.145950,32.100815 48.890987,29.698730 
	C50.304111,28.619926 52.023533,27.781185 53.950104,26.697878 
	C55.153214,26.312490 56.149181,26.171671 57.521255,26.047043 
	C58.027500,27.440817 58.157642,28.818399 58.399551,30.594963 
	C58.431561,32.508129 58.351803,34.022316 58.157661,35.980679 
z"/>
</svg>